<svg width="46" height="46" viewBox="0 0 46 46" fill="none" xmlns="http://www.w3.org/2000/svg">
<g filter="url(#filter0_d_33_30188)">
<circle cx="23" cy="19" r="15" fill="#D79600"/>
<circle cx="23" cy="19" r="14" stroke="white" stroke-width="2"/>
</g>
<path d="M27.1641 11.5C25.7855 11.5 24.6641 12.6214 24.6641 14C24.6641 15.3786 25.7855 16.5 27.1641 16.5C28.5427 16.5 29.6641 15.3786 29.6641 14C29.6641 12.6214 28.5427 11.5 27.1641 11.5ZM27.1641 15.9444C26.948 15.9444 26.7731 15.7695 26.7731 15.5535C26.7731 15.3374 26.948 15.1626 27.1641 15.1626C27.3801 15.1626 27.555 15.3374 27.555 15.5535C27.555 15.7695 27.3801 15.9444 27.1641 15.9444ZM27.6476 12.6214L27.2875 14.823H27.0406L26.6805 12.6214C26.6291 12.323 26.8657 12.0556 27.1641 12.0556C27.4624 12.0556 27.699 12.323 27.6476 12.6214Z" fill="white"/>
<path d="M22.7734 18.1592L24.3672 19.3921C24.653 19.6092 25.0602 19.5571 25.2854 19.2792C25.5019 18.9927 25.4499 18.5846 25.1728 18.3589L22.9727 16.6484C22.938 16.8134 22.912 16.9697 22.8947 17.126L22.7908 18.1592H22.7734Z" fill="white"/>
<path d="M20.0056 21.3516L18.637 26.3527C18.5244 26.7521 18.7669 27.1688 19.1654 27.2817C19.5638 27.3946 19.9796 27.1515 20.0922 26.7521L21.2442 22.5324L20.4646 21.9159C20.2741 21.7596 20.1095 21.5686 19.9969 21.3516H20.0056Z" fill="white"/>
<path d="M22.1099 14.4919C22.861 14.4919 23.4698 13.8816 23.4698 13.1288C23.4698 12.3759 22.861 11.7656 22.1099 11.7656C21.3588 11.7656 20.75 12.3759 20.75 13.1288C20.75 13.8816 21.3588 14.4919 22.1099 14.4919Z" fill="white"/>
<path d="M25.4269 26.4666L24.7946 23.5058C24.7339 23.2367 24.604 22.9849 24.4134 22.7765C24.4134 22.7765 24.3961 22.7505 24.3788 22.7418C24.3095 22.6636 24.2229 22.6029 24.1363 22.5421C24.1276 22.5421 24.1103 22.5247 24.1016 22.516L22.5079 21.2571C22.2826 21.0834 22.17 20.7969 22.2134 20.5191C22.2134 20.5191 22.5252 18.3658 22.5425 18.2877L22.5771 17.9925L22.6724 17.0982C22.6897 16.9332 22.7244 16.7595 22.759 16.5946C22.759 16.5598 22.7764 16.5251 22.7764 16.4904C22.837 16.1952 22.8803 15.9087 22.8283 15.6221C22.7677 15.2748 22.5165 15.0925 22.326 14.9883C21.9535 14.806 21.4771 14.806 21.1393 14.9883L19.1298 16.0823C18.9305 16.1952 18.7833 16.3775 18.714 16.5946V16.6033C18.7053 16.6293 18.688 16.664 18.6793 16.6901L18.0297 18.7305C17.9777 18.8954 17.9951 19.0691 18.073 19.2254C18.151 19.3817 18.2896 19.4945 18.4541 19.5466C18.7919 19.6508 19.1557 19.4598 19.2683 19.1125L19.8747 17.1329L20.4983 16.7943L20.0046 20.137C19.9699 20.3715 19.9786 20.5972 20.0392 20.8229C20.0566 20.9011 20.0739 20.9619 20.0912 21.0313C20.1865 21.3092 20.3597 21.561 20.5936 21.7433L21.2952 22.299L22.9929 23.6448C23.1661 23.7837 23.2788 23.9747 23.3307 24.1831L23.8851 26.7791C23.9544 27.1004 24.2402 27.3261 24.5607 27.3261C24.6127 27.3261 24.656 27.3261 24.7079 27.3088L24.8812 27.274C25.2536 27.1959 25.4875 26.8312 25.4096 26.4579L25.4269 26.4666Z" fill="white"/>
<defs>
<filter id="filter0_d_33_30188" x="0" y="0" width="46" height="46" filterUnits="userSpaceOnUse" color-interpolation-filters="sRGB">
<feFlood flood-opacity="0" result="BackgroundImageFix"/>
<feColorMatrix in="SourceAlpha" type="matrix" values="0 0 0 0 0 0 0 0 0 0 0 0 0 0 0 0 0 0 127 0" result="hardAlpha"/>
<feOffset dy="4"/>
<feGaussianBlur stdDeviation="4"/>
<feComposite in2="hardAlpha" operator="out"/>
<feColorMatrix type="matrix" values="0 0 0 0 0 0 0 0 0 0 0 0 0 0 0 0 0 0 0.35 0"/>
<feBlend mode="normal" in2="BackgroundImageFix" result="effect1_dropShadow_33_30188"/>
<feBlend mode="normal" in="SourceGraphic" in2="effect1_dropShadow_33_30188" result="shape"/>
</filter>
</defs>
</svg>
